<?xml version="1.0" encoding="utf-8" standalone="no"?>
<!DOCTYPE svg PUBLIC "-//W3C//DTD SVG 1.1//EN"
  "http://www.w3.org/Graphics/SVG/1.1/DTD/svg11.dtd">
<svg xmlns:xlink="http://www.w3.org/1999/xlink" width="460.8pt" height="345.6pt" viewBox="0 0 460.8 345.6" xmlns="http://www.w3.org/2000/svg" version="1.1">
 <metadata>
  <rdf:RDF xmlns:dc="http://purl.org/dc/elements/1.1/" xmlns:cc="http://creativecommons.org/ns#" xmlns:rdf="http://www.w3.org/1999/02/22-rdf-syntax-ns#">
   <cc:Work>
    <dc:type rdf:resource="http://purl.org/dc/dcmitype/StillImage"/>
    <dc:date>2024-06-13T14:37:13.858562</dc:date>
    <dc:format>image/svg+xml</dc:format>
    <dc:creator>
     <cc:Agent>
      <dc:title>Matplotlib v3.9.0, https://matplotlib.org/</dc:title>
     </cc:Agent>
    </dc:creator>
   </cc:Work>
  </rdf:RDF>
 </metadata>
 <defs>
  <style type="text/css">*{stroke-linejoin: round; stroke-linecap: butt}</style>
 </defs>
 <g id="figure_1">
  <g id="patch_1">
   <path d="M 0 345.6 
L 460.8 345.6 
L 460.8 0 
L 0 0 
z
" style="fill: #ffffff"/>
  </g>
  <g id="axes_1">
   <g id="line2d_1">
    <path d="M 73.832727 174.52799 
L 114.34351 174.52799 
L 114.992981 163.002624 
L 115.317717 160.544988 
L 115.398901 160.401764 
L 115.480085 160.460633 
L 115.642452 161.199647 
L 115.886004 163.876763 
L 116.21074 170.256535 
L 116.697844 184.790586 
L 118.159154 232.925631 
L 118.48389 237.294784 
L 118.646258 237.923004 
L 118.727442 237.819272 
L 118.88981 236.750366 
L 119.133362 232.959586 
L 119.458097 223.883513 
L 119.945201 202.557295 
L 120.75704 154.098798 
L 121.650063 103.472913 
L 122.137167 86.804181 
L 122.461903 82.259023 
L 122.543087 82.03203 
L 122.624271 82.179119 
L 122.786638 83.603544 
L 123.03019 88.553132 
L 123.354926 100.197394 
L 123.84203 127.077846 
L 124.653869 187.24998 
L 125.628076 255.116325 
L 126.11518 275.287104 
L 126.439915 281.101503 
L 126.602283 281.50284 
L 126.764651 280.199585 
L 127.008203 275.076328 
L 127.332939 262.59707 
L 127.820042 233.394043 
L 128.631882 167.536406 
L 129.606089 92.247779 
L 130.093192 68.960191 
L 130.417928 61.470572 
L 130.580296 60.373308 
L 130.66148 60.501538 
L 130.823848 62.112882 
L 131.0674 67.8663 
L 131.392135 81.437072 
L 131.879239 112.610982 
L 132.772262 189.109948 
L 133.665285 259.832631 
L 134.152389 283.634291 
L 134.477125 291.149977 
L 134.639493 292.173651 
L 134.720677 291.988759 
L 134.883044 290.227369 
L 135.126596 284.167045 
L 135.451332 270.064677 
L 135.938436 237.930894 
L 136.831459 159.649351 
L 137.724482 87.750373 
L 138.211586 63.698346 
L 138.536321 56.169965 
L 138.698689 55.182131 
L 138.779873 55.394619 
L 138.942241 57.229086 
L 139.185793 63.438881 
L 139.510529 77.80015 
L 139.997632 110.401416 
L 140.890655 189.551122 
L 141.783679 262.022986 
L 142.270782 286.196949 
L 142.595518 293.731513 
L 142.757886 294.701891 
L 142.83907 294.475964 
L 143.001438 292.605906 
L 143.244989 286.323315 
L 143.569725 271.835954 
L 144.056829 239.007012 
L 144.949852 159.434487 
L 145.842875 86.683612 
L 146.329979 62.450264 
L 146.654715 54.912689 
L 146.817082 53.950811 
L 146.898266 54.183284 
L 147.060634 56.070675 
L 147.304186 62.38872 
L 147.628922 76.937492 
L 148.116025 109.877318 
L 149.009049 189.655766 
L 149.902072 262.542527 
L 150.389175 286.804797 
L 150.713911 294.343839 
L 150.876279 295.301576 
L 150.957463 295.065916 
L 151.119831 293.170083 
L 151.363383 286.834771 
L 151.688118 272.256091 
L 152.175222 239.262261 
L 153.068245 159.383523 
L 153.961268 86.430582 
L 154.448372 62.154226 
L 154.773108 54.614469 
L 154.935476 53.658749 
L 155.01666 53.895962 
L 155.179027 55.795907 
L 155.422579 62.139628 
L 155.747315 76.732873 
L 156.234419 109.753005 
L 157.127442 189.680587 
L 158.020465 262.665759 
L 158.507569 286.948976 
L 158.832304 294.48908 
L 158.994672 295.443819 
L 159.075856 295.205849 
L 159.238224 293.303902 
L 159.481776 286.956086 
L 159.806512 272.355746 
L 160.293615 239.322805 
L 161.186638 159.371434 
L 162.079662 86.370565 
L 162.566765 62.084007 
L 162.891501 54.543733 
L 163.053869 53.589473 
L 163.135053 53.827811 
L 163.297421 55.730733 
L 163.540973 62.080544 
L 163.865708 76.684339 
L 164.352812 109.723519 
L 165.245835 189.686475 
L 166.138858 262.694989 
L 166.625962 286.983174 
L 166.950698 294.52353 
L 167.113066 295.477558 
L 167.194249 295.239041 
L 167.356617 293.335644 
L 167.600169 286.984861 
L 167.924905 272.379383 
L 168.412008 239.337165 
L 169.305032 159.368567 
L 170.198055 86.356329 
L 170.685159 62.067351 
L 171.009894 54.526955 
L 171.172262 53.573041 
L 171.253446 53.811645 
L 171.415814 55.715274 
L 171.659366 62.06653 
L 171.984101 76.672827 
L 172.471205 109.716525 
L 173.364228 189.687871 
L 174.257252 262.701922 
L 174.744355 286.991286 
L 175.069091 294.531702 
L 175.231459 295.48556 
L 175.312643 295.246914 
L 175.475011 293.343173 
L 175.718562 286.991686 
L 176.043298 272.38499 
L 176.530402 239.340572 
L 177.423425 159.367887 
L 178.316448 86.352952 
L 178.803552 62.063401 
L 179.128288 54.522975 
L 179.290655 53.569144 
L 179.371839 53.807811 
L 179.534207 55.711607 
L 179.777759 62.063206 
L 180.102495 76.670096 
L 180.589598 109.714866 
L 181.482622 189.688203 
L 182.375645 262.703567 
L 182.862748 286.99321 
L 183.187484 294.53364 
L 183.349852 295.487459 
L 183.431036 295.248781 
L 183.593404 293.344958 
L 183.836956 286.993305 
L 184.161691 272.38632 
L 184.648795 239.34138 
L 185.541818 159.367725 
L 186.434841 86.352152 
L 186.921945 62.062464 
L 187.246681 54.522032 
L 187.409049 53.568219 
L 187.490233 53.806902 
L 187.6526 55.710737 
L 187.896152 62.062417 
L 188.220888 76.669449 
L 188.707992 109.714472 
L 189.601015 189.688281 
L 190.494038 262.703957 
L 190.981142 286.993667 
L 191.305877 294.5341 
L 191.468245 295.487909 
L 191.549429 295.249224 
L 191.711797 293.345382 
L 191.955349 286.993689 
L 192.280085 272.386635 
L 192.767188 239.341571 
L 193.660211 159.367687 
L 194.553235 86.351962 
L 195.040338 62.062241 
L 195.365074 54.521808 
L 195.527442 53.568 
L 195.68981 59.029936 
L 195.933362 80.065814 
L 196.339281 139.653944 
L 197.151121 260.150948 
L 197.394672 275.182779 
L 197.55704 277.215339 
L 197.719408 272.829533 
L 197.96296 255.233467 
L 198.368879 204.512202 
L 199.180719 99.991163 
L 199.424271 86.585159 
L 199.586638 84.592621 
L 199.749006 88.227425 
L 199.992558 103.422939 
L 200.398478 147.956262 
L 201.210317 241.328108 
L 201.535053 255.220671 
L 201.616237 255.5641 
L 201.778605 252.4534 
L 202.022156 238.933165 
L 202.428076 198.71824 
L 203.239915 113.127111 
L 203.564651 100.086187 
L 203.645835 99.702432 
L 203.727019 100.495774 
L 203.889387 105.520453 
L 204.214123 127.708533 
L 205.513066 243.087862 
L 205.675433 245.019374 
L 205.756617 244.321637 
L 205.918985 239.675965 
L 206.162537 225.310378 
L 206.649641 178.854494 
L 207.299112 119.524665 
L 207.623848 107.492847 
L 207.705032 107.061309 
L 207.786216 107.692326 
L 207.948584 112.073499 
L 208.192135 125.768146 
L 208.679239 170.361291 
L 209.32871 227.696209 
L 209.653446 239.43857 
L 209.73463 239.883814 
L 209.815814 239.299359 
L 209.978182 235.102772 
L 210.221734 221.876356 
L 210.708837 178.583166 
L 211.358309 122.640443 
L 211.683044 111.100086 
L 211.764228 110.645277 
L 211.845412 111.197238 
L 212.00778 115.265006 
L 212.251332 128.164656 
L 212.738436 170.550643 
L 213.387907 225.521793 
L 213.712643 236.921176 
L 213.793827 237.38266 
L 213.875011 236.853377 
L 214.037378 232.875506 
L 214.28093 220.203897 
L 214.768034 178.451023 
L 215.417505 124.157909 
L 215.742241 112.856907 
L 215.823425 112.390764 
L 215.904609 112.904222 
L 216.066977 116.819355 
L 216.310529 129.33182 
L 216.797632 170.642863 
L 217.447104 224.462794 
L 217.771839 235.695139 
L 217.853023 236.164532 
L 217.934207 235.662119 
L 218.096575 231.790769 
L 218.340127 219.389366 
L 218.82723 178.386665 
L 219.476702 124.896955 
L 219.801438 113.712525 
L 219.882622 113.240862 
L 219.963805 113.735569 
L 220.126173 117.576363 
L 220.369725 129.90026 
L 220.856829 170.687776 
L 221.5063 223.947034 
L 221.831036 235.098026 
L 221.91222 235.571272 
L 221.993404 235.081944 
L 222.155772 231.262473 
L 222.399323 218.992667 
L 222.886427 178.355321 
L 223.535899 125.25689 
L 223.860634 114.129233 
L 223.941818 113.654883 
L 224.023002 114.140456 
L 224.18537 117.945047 
L 224.428922 130.177105 
L 224.916025 170.70965 
L 225.565497 223.695845 
L 225.890233 234.807216 
L 225.971416 235.282338 
L 226.0526 234.799384 
L 226.214968 231.005179 
L 226.45852 218.799464 
L 226.945624 178.340056 
L 227.595095 125.432188 
L 227.919831 114.332182 
L 228.001015 113.856521 
L 228.082199 114.337647 
L 228.244567 118.124605 
L 228.488118 130.311936 
L 228.975222 170.720304 
L 229.624693 223.573509 
L 229.949429 234.665584 
L 230.030613 235.14162 
L 230.111797 234.66177 
L 230.274165 230.87987 
L 230.517717 218.70537 
L 231.00482 178.332621 
L 231.654292 125.517563 
L 231.979027 114.431023 
L 232.060211 113.954725 
L 232.141395 114.433685 
L 232.303763 118.212055 
L 232.547315 130.377602 
L 233.034419 170.725492 
L 233.68389 223.513929 
L 234.008626 234.596606 
L 234.08981 235.073087 
L 234.170994 234.594748 
L 234.333362 230.818841 
L 234.576913 218.659543 
L 235.064017 178.329 
L 235.713488 125.559142 
L 236.038224 114.479161 
L 236.119408 114.002553 
L 236.200592 114.480457 
L 236.36296 118.254645 
L 236.606512 130.409583 
L 237.093615 170.728019 
L 237.743087 223.484911 
L 238.067822 234.563012 
L 238.149006 235.039709 
L 238.23019 234.562107 
L 238.392558 230.789119 
L 238.63611 218.637224 
L 239.123214 178.327237 
L 239.772685 125.579393 
L 240.097421 114.502605 
L 240.178605 114.025846 
L 240.259789 114.503237 
L 240.422156 118.275388 
L 240.665708 130.425159 
L 241.152812 170.729249 
L 241.802283 223.470779 
L 242.127019 234.54665 
L 242.208203 235.023453 
L 242.289387 234.54621 
L 242.451755 230.774643 
L 242.695307 218.626354 
L 243.18241 178.326378 
L 243.831882 125.589255 
L 244.156617 114.514024 
L 244.237801 114.03719 
L 244.318985 114.514331 
L 244.481353 118.28549 
L 244.724905 130.432744 
L 245.212008 170.729849 
L 245.86148 223.463896 
L 246.186216 234.538682 
L 246.2674 235.015536 
L 246.348584 234.538467 
L 246.510951 230.767593 
L 246.754503 218.62106 
L 247.241607 178.32596 
L 247.891078 125.594059 
L 248.215814 114.519585 
L 248.296998 114.042715 
L 248.378182 114.519734 
L 248.54055 118.29041 
L 248.784101 130.436439 
L 249.271205 170.730141 
L 249.920677 223.460544 
L 250.245412 234.534801 
L 250.326596 235.01168 
L 250.40778 234.534697 
L 250.570148 230.764159 
L 250.8137 218.618482 
L 251.300803 178.325756 
L 251.950275 125.596398 
L 252.275011 114.522293 
L 252.356195 114.045406 
L 252.437378 114.522366 
L 252.599746 118.292806 
L 252.843298 130.438238 
L 253.330402 170.730283 
L 253.979873 223.458912 
L 254.304609 234.532911 
L 254.385793 235.009802 
L 254.466977 234.53286 
L 254.629345 230.762487 
L 254.872896 218.617226 
L 255.36 178.325657 
L 256.009471 125.597537 
L 256.334207 114.523612 
L 256.415391 114.046717 
L 256.496575 114.523647 
L 256.658943 118.293973 
L 256.902495 130.439114 
L 257.389598 170.730352 
L 258.03907 223.458117 
L 258.363805 234.53199 
L 258.444989 235.008888 
L 258.526173 234.531966 
L 258.688541 230.761673 
L 258.932093 218.616615 
L 259.419197 178.325609 
L 260.068668 125.598092 
L 260.393404 114.524254 
L 260.474588 114.047355 
L 260.555772 114.524272 
L 260.71814 118.294542 
L 260.961691 130.439541 
L 261.448795 170.730386 
L 262.098266 223.457729 
L 262.423002 234.531542 
L 262.504186 235.008442 
L 262.58537 234.53153 
L 262.747738 230.761276 
L 262.99129 218.616317 
L 263.478393 178.325585 
L 264.127865 125.598362 
L 264.4526 114.524567 
L 264.533784 114.047666 
L 264.614968 114.524576 
L 264.777336 118.294818 
L 265.020888 130.439749 
L 265.507992 170.730402 
L 266.157463 223.457541 
L 266.482199 234.531324 
L 266.563383 235.008226 
L 266.644567 234.531318 
L 266.806934 230.761083 
L 267.050486 218.616172 
L 267.53759 178.325574 
L 268.187061 125.598494 
L 268.511797 114.52472 
L 268.592981 114.047817 
L 268.674165 114.524724 
L 268.836533 118.294953 
L 269.080085 130.43985 
L 269.567188 170.73041 
L 270.21666 223.457449 
L 270.541395 234.531217 
L 270.622579 235.00812 
L 270.703763 234.531215 
L 270.866131 230.760989 
L 271.109683 218.616101 
L 271.596786 178.325568 
L 272.246258 125.598558 
L 272.570994 114.524794 
L 272.652178 114.047891 
L 272.733362 114.524796 
L 272.895729 118.295019 
L 273.139281 130.4399 
L 273.626385 170.730414 
L 274.275856 223.457404 
L 274.600592 234.531166 
L 274.681776 235.008068 
L 274.76296 234.531164 
L 274.925328 230.760943 
L 275.168879 218.616067 
L 275.655983 178.325565 
L 276.305455 125.598589 
L 276.63019 114.52483 
L 277.279662 111.081691 
L 277.44203 111.464767 
L 277.685581 113.124299 
L 278.010317 117.383233 
L 278.416237 125.923005 
L 278.984524 143.31908 
L 279.796364 176.328061 
L 281.58241 251.750405 
L 282.150698 266.978839 
L 282.556617 273.240633 
L 282.800169 274.931957 
L 282.962537 275.160903 
L 283.124905 274.659505 
L 283.368457 272.532182 
L 283.693192 267.156311 
L 284.099112 256.526732 
L 284.6674 235.135315 
L 285.479239 194.79784 
L 287.508837 89.716345 
L 288.077125 71.395844 
L 288.483044 63.55496 
L 288.80778 60.755729 
L 288.970148 60.55484 
L 289.132516 61.160459 
L 289.376068 63.575555 
L 289.700803 69.55274 
L 290.187907 84.081814 
L 290.837378 112.364796 
L 291.811586 167.194183 
L 293.272896 249.583189 
L 293.922368 275.543919 
L 294.409471 287.811225 
L 294.734207 292.074402 
L 294.977759 293.113407 
L 295.058943 293.043281 
L 295.221311 292.277858 
L 295.464863 289.578066 
L 295.789598 283.151883 
L 296.276702 267.845302 
L 296.926173 238.440791 
L 297.900381 182.034311 
L 299.361691 98.121106 
L 300.011163 71.895446 
L 300.498266 59.585096 
L 300.823002 55.357795 
L 301.066554 54.375031 
L 301.147738 54.468906 
L 301.310106 55.288644 
L 301.553658 58.085199 
L 301.878393 64.663988 
L 302.365497 80.234831 
L 303.014968 110.02053 
L 303.989175 166.963035 
L 305.450486 251.394289 
L 306.099958 277.709995 
L 306.587061 290.034974 
L 306.911797 294.250082 
L 307.155349 295.21373 
L 307.236533 295.111783 
L 307.398901 294.273585 
L 307.642452 291.444142 
L 307.967188 284.813484 
L 308.454292 269.152824 
L 309.103763 239.237566 
L 310.07797 182.112874 
L 311.539281 97.505544 
L 312.188753 71.159234 
L 312.675856 58.829283 
L 313.000592 54.618319 
L 313.244144 53.661168 
L 313.325328 53.765858 
L 313.487696 54.610331 
L 313.731247 57.450952 
L 314.055983 64.099239 
L 314.543087 79.790427 
L 315.192558 109.74972 
L 316.166765 166.936333 
L 317.628076 251.603508 
L 318.277548 277.96022 
L 318.764651 290.291861 
L 319.089387 294.501416 
L 319.332939 295.456359 
L 319.414123 295.350737 
L 319.57649 294.504131 
L 319.820042 291.659711 
L 320.144778 285.005432 
L 320.631882 269.303869 
L 321.281353 239.329609 
L 322.25556 182.12195 
L 323.716871 97.434435 
L 324.366342 71.074187 
L 324.853446 58.741971 
L 325.178182 54.532895 
L 325.421734 53.578702 
L 325.502918 53.684642 
L 325.665285 54.531972 
L 325.908837 57.377684 
L 326.233573 64.033999 
L 326.720677 79.739089 
L 327.370148 109.718436 
L 328.344355 166.933248 
L 329.805666 251.627677 
L 330.455137 277.989126 
L 330.942241 290.321537 
L 331.266977 294.530451 
L 331.510529 295.484388 
L 331.591712 295.378341 
L 331.75408 294.530764 
L 331.997632 291.684614 
L 332.322368 285.027606 
L 332.809471 269.321318 
L 333.458943 239.340242 
L 334.43315 182.122998 
L 335.894461 97.42622 
L 336.543932 71.064363 
L 337.031036 58.731885 
L 337.355772 54.523027 
L 337.599323 53.569176 
L 337.680507 53.67526 
L 337.842875 54.52292 
L 338.086427 57.36922 
L 338.411163 64.026463 
L 338.898266 79.733158 
L 339.547738 109.714822 
L 340.521945 166.932892 
L 341.983256 251.630469 
L 342.632727 277.992465 
L 343.119831 290.324965 
L 343.444567 294.533805 
L 343.688118 295.487626 
L 343.769302 295.38153 
L 343.93167 294.533841 
L 344.175222 291.68749 
L 344.499958 285.030168 
L 344.987061 269.323334 
L 345.636533 239.34147 
L 346.61074 182.123119 
L 348.072051 97.425271 
L 348.721522 71.063228 
L 349.208626 58.73072 
L 349.533362 54.521887 
L 349.776913 53.568076 
L 349.858097 53.674176 
L 350.020465 54.521875 
L 350.264017 57.368242 
L 350.588753 64.025592 
L 351.075856 79.732473 
L 351.725328 109.714404 
L 352.699535 166.932851 
L 354.160846 251.630791 
L 354.810317 277.992851 
L 355.297421 290.325361 
L 355.622156 294.534192 
L 355.865708 295.488 
L 355.946892 295.381898 
L 356.10926 294.534196 
L 356.352812 291.687823 
L 356.677548 285.030464 
L 357.164651 269.323566 
L 357.814123 239.341612 
L 358.544778 194.729162 
L 359.356617 153.209156 
L 360.006089 129.942493 
L 360.493192 118.888348 
L 360.899112 113.773016 
L 361.223848 112.181286 
L 361.386216 112.155376 
L 361.548584 112.606195 
L 361.792135 114.10997 
L 362.198055 118.551014 
L 362.766342 127.922716 
L 363.74055 148.575142 
L 365.039493 175.242094 
L 365.770148 186.136674 
L 366.338436 191.793506 
L 366.825539 194.628871 
L 367.150275 195.538178 
L 367.393827 195.743815 
L 367.556195 195.670368 
L 367.799746 195.269098 
L 368.124482 194.247365 
L 368.611586 191.859543 
L 369.342241 186.992817 
L 371.290655 173.350927 
L 372.021311 169.944638 
L 372.589598 168.269477 
L 373.076702 167.509569 
L 373.401438 167.325692 
L 373.726173 167.374777 
L 374.132093 167.722616 
L 374.619197 168.481613 
L 375.349852 170.091133 
L 377.541818 175.224813 
L 378.272474 176.278563 
L 378.840761 176.764166 
L 379.409049 176.96805 
L 379.977336 176.924005 
L 380.626808 176.633419 
L 381.601015 175.899004 
L 383.630613 174.291152 
L 384.523636 173.87568 
L 385.41666 173.703062 
L 386.390867 173.753743 
L 387.770994 174.08567 
L 390.206512 174.695772 
L 391.667822 174.810776 
L 393.535053 174.709942 
L 397.594249 174.432694 
L 398.487273 174.437173 
L 398.487273 174.437173 
" clip-path="url(#p20c018d70d)" style="fill: none; stroke: #1f77b4; stroke-width: 1.5; stroke-linecap: square"/>
   </g>
  </g>
 </g>
 <defs>
  <clipPath id="p20c018d70d">
   <rect x="57.6" y="41.472" width="357.12" height="266.112"/>
  </clipPath>
 </defs>
</svg>
